
<svg version="1.0" xmlns="http://www.w3.org/2000/svg"
 width="285.000000pt" height="449.000000pt" viewBox="0 0 285.000000 449.000000"
 preserveAspectRatio="xMidYMid meet">
<metadata>
Created by potrace 1.16, written by Peter Selinger 2001-2019
</metadata>
<g transform="translate(0.000000,449.000000) scale(0.100000,-0.100000)"
fill="#1b1924" stroke="none">
<path d="M0 2245 l0 -2245 1425 0 1425 0 0 2245 0 2245 -1425 0 -1425 0 0
-2245z m889 2090 c51 -26 55 -89 9 -146 -30 -38 -31 -40 -19 -81 7 -24 23 -61
35 -83 12 -22 33 -78 46 -125 13 -47 27 -87 31 -90 4 -3 22 -41 39 -85 17 -44
35 -87 40 -96 5 -9 6 -26 3 -38 -4 -17 -1 -21 19 -21 21 0 26 -7 36 -51 7 -28
12 -64 12 -80 0 -16 4 -29 9 -29 5 0 13 -9 16 -20 5 -14 16 -20 38 -21 18 0
41 -4 52 -8 25 -10 45 4 45 33 0 28 28 69 76 110 40 34 40 34 110 26 91 -10
148 -46 165 -105 11 -39 6 -264 -7 -311 -7 -27 22 -74 46 -74 35 0 89 -31 116
-66 15 -19 43 -43 62 -52 20 -9 45 -30 56 -45 19 -27 21 -40 18 -181 l-3 -152
33 -45 c42 -55 54 -82 72 -163 21 -88 50 -136 85 -136 54 0 76 -36 55 -89 -20
-47 -18 -69 11 -125 19 -38 25 -65 25 -114 0 -63 -1 -66 -40 -103 -21 -20 -41
-49 -43 -63 -1 -14 -10 -32 -19 -38 -17 -14 -29 -138 -44 -463 l-7 -140 66
-125 c36 -69 79 -156 96 -195 16 -38 50 -106 75 -150 26 -44 55 -111 67 -148
40 -132 51 -151 110 -176 29 -13 90 -30 136 -38 69 -13 83 -19 83 -34 0 -18
-12 -19 -220 -19 l-220 0 0 30 c0 26 -3 30 -29 30 -31 0 -43 19 -151 225 -14
27 -33 51 -42 53 -14 3 -17 -18 -23 -151 -7 -145 -15 -191 -30 -175 -4 4 -1
96 6 206 12 194 12 200 -8 221 -24 26 -105 173 -138 250 -13 32 -42 85 -63
117 -22 32 -70 111 -107 174 -86 146 -274 430 -285 430 -4 0 -23 -19 -42 -42
-50 -62 -309 -422 -333 -462 -18 -31 -50 -79 -176 -267 -20 -31 -47 -75 -59
-99 -12 -23 -62 -110 -112 -194 -50 -83 -108 -186 -130 -228 -29 -60 -43 -78
-59 -78 -12 0 -23 -8 -26 -20 -5 -19 -14 -20 -151 -20 l-145 0 6 52 c6 47 12
57 57 98 40 35 58 63 86 130 29 69 48 97 99 146 61 60 88 105 130 219 10 28
30 65 43 83 20 26 24 40 20 77 -7 62 28 132 79 160 34 19 41 30 62 95 32 102
167 453 197 513 9 18 14 61 14 110 0 77 2 84 30 114 17 18 30 39 30 47 0 8 5
18 10 21 18 11 -7 323 -32 390 -9 26 -7 38 11 73 11 22 21 46 21 51 0 14 -47
38 -91 46 -31 6 -41 1 -87 -36 -29 -24 -61 -58 -73 -77 -18 -32 -22 -34 -36
-19 -26 26 -8 82 43 137 51 54 63 101 29 108 -11 2 -24 8 -29 12 -15 15 4 60
29 70 21 8 25 16 25 50 0 33 -3 40 -19 40 -42 0 -29 73 14 84 16 4 29 20 41
53 12 32 38 67 76 103 l58 55 -34 100 c-19 55 -42 125 -50 156 -10 34 -32 76
-57 108 -36 46 -43 62 -50 119 -13 116 -40 254 -53 274 -10 13 -11 32 -4 72 5
33 4 65 -1 80 -6 13 -11 60 -12 104 -2 81 12 120 50 142 24 14 68 12 100 -5z"/>
<path d="M1695 2413 c-3 -70 -10 -150 -16 -176 -15 -80 -11 -124 21 -193 18
-41 28 -75 24 -89 -3 -14 7 -49 30 -97 19 -40 55 -132 79 -204 25 -72 53 -146
62 -164 26 -51 63 -165 76 -233 11 -61 45 -137 61 -137 14 0 16 17 29 205 6
99 14 230 19 290 5 85 4 117 -7 141 -8 17 -13 35 -12 40 5 28 -7 47 -59 100
-32 33 -65 75 -75 94 -9 19 -33 60 -52 90 -106 170 -115 192 -115 276 0 79
-25 174 -48 182 -6 2 -12 -46 -17 -125z"/>
</g>
</svg>
